<svg id="Ebene_1" data-name="Ebene 1" xmlns="http://www.w3.org/2000/svg" viewBox="0 0 70.87 6.48"><defs><style>.cls-1{fill:#fff;}</style></defs><title>Zeichenfläche 1</title><path class="cls-1" d="M66.76,6.48a6.14,6.14,0,0,1-3.88-1.23,5.56,5.56,0,0,0-6.18,0,6.73,6.73,0,0,1-7.76,0,5.56,5.56,0,0,0-6.18,0,6.73,6.73,0,0,1-7.76,0,5.54,5.54,0,0,0-6.17,0,6.75,6.75,0,0,1-7.77,0,5.54,5.54,0,0,0-6.17,0A.62.62,0,0,1,14,5.17a.61.61,0,0,1,.08-.87,6.75,6.75,0,0,1,7.77,0A5.54,5.54,0,0,0,28,4.3a6.73,6.73,0,0,1,7.76,0A5.56,5.56,0,0,0,42,4.3a6.73,6.73,0,0,1,7.76,0,5.56,5.56,0,0,0,6.18,0,6.73,6.73,0,0,1,7.76,0,5.56,5.56,0,0,0,6.18,0,.62.62,0,1,1,.79,1A6.14,6.14,0,0,1,66.76,6.48Z"/><path class="cls-1" d="M52.89,3.41A6.14,6.14,0,0,1,49,2.18a5.54,5.54,0,0,0-6.17,0,6.75,6.75,0,0,1-7.77,0,5.54,5.54,0,0,0-6.17,0,6.75,6.75,0,0,1-7.77,0,5.54,5.54,0,0,0-6.17,0,6.75,6.75,0,0,1-7.77,0A5.54,5.54,0,0,0,1,2.18a.62.62,0,0,1-.8-1A6.75,6.75,0,0,1,8,1.23a5.54,5.54,0,0,0,6.17,0,6.75,6.75,0,0,1,7.77,0,5.54,5.54,0,0,0,6.17,0,6.75,6.75,0,0,1,7.77,0,5.53,5.53,0,0,0,6.17,0,6.75,6.75,0,0,1,7.77,0,5.54,5.54,0,0,0,6.17,0,.63.63,0,0,1,.88.08.62.62,0,0,1-.08.87A6.15,6.15,0,0,1,52.89,3.41Z"/></svg>