<svg id="Ebene_1" data-name="Ebene 1" xmlns="http://www.w3.org/2000/svg" viewBox="0 0 56.69 4.88"><defs><style>.cls-1{fill:#fff;}</style></defs><title>welle-weiss</title><path class="cls-1" d="M30.49,4.87a4.76,4.76,0,0,1-3-1,4.56,4.56,0,0,0-5.19,0,5.23,5.23,0,0,1-6,0,4.58,4.58,0,0,0-5.2,0l-.4-.48a5.23,5.23,0,0,1,6,0,4.58,4.58,0,0,0,5.2,0,5.23,5.23,0,0,1,6,0,4.6,4.6,0,0,0,5.2,0,5.22,5.22,0,0,1,6,0,4.58,4.58,0,0,0,5.2,0,5.27,5.27,0,0,1,6,0,4.56,4.56,0,0,0,5.19,0l.41.49a5.22,5.22,0,0,1-6,0,4.58,4.58,0,0,0-5.2,0,5.23,5.23,0,0,1-6,0,4.58,4.58,0,0,0-5.19,0A4.76,4.76,0,0,1,30.49,4.87Z"/><path class="cls-1" d="M41.76,2.4a4.81,4.81,0,0,1-3-.95,4.56,4.56,0,0,0-5.19,0,5.23,5.23,0,0,1-6,0,4.58,4.58,0,0,0-5.2,0,5.22,5.22,0,0,1-6,0,4.58,4.58,0,0,0-5.2,0,5.22,5.22,0,0,1-6,0,4.58,4.58,0,0,0-5.2,0L-.49,1a5.23,5.23,0,0,1,6,0,4.56,4.56,0,0,0,5.19,0,5.23,5.23,0,0,1,6,0,4.58,4.58,0,0,0,5.2,0,5.22,5.22,0,0,1,6,0,4.58,4.58,0,0,0,5.2,0,5.22,5.22,0,0,1,6,0,4.58,4.58,0,0,0,5.2,0l.41.49A4.81,4.81,0,0,1,41.76,2.4Z"/></svg>